<svg width="15" height="15" viewBox="0 0 15 15" fill="none" xmlns="http://www.w3.org/2000/svg">
<path d="M0.979248 1.36458C0.979248 1.20711 1.0418 1.05608 1.15315 0.944734C1.2645 0.833384 1.41553 0.770828 1.573 0.770828H2.01475C2.76683 0.770828 3.21808 1.2767 3.47537 1.74695C3.64716 2.06045 3.77146 2.42383 3.86883 2.75316C3.89517 2.75108 3.92158 2.75003 3.948 2.74999H13.8422C14.4993 2.74999 14.9743 3.37858 14.7938 4.01112L13.3467 9.08491C13.2169 9.54 12.9424 9.94043 12.5647 10.2256C12.187 10.5107 11.7267 10.665 11.2535 10.6651H6.54466C6.06768 10.6651 5.60389 10.5085 5.22458 10.2193C4.84527 9.93006 4.57144 9.52429 4.44516 9.06433L3.8435 6.86983L2.846 3.50683L2.84521 3.50049C2.72171 3.05162 2.60612 2.63124 2.43354 2.31774C2.26808 2.01295 2.13508 1.95833 2.01554 1.95833H1.573C1.41553 1.95833 1.2645 1.89577 1.15315 1.78442C1.0418 1.67307 0.979248 1.52205 0.979248 1.36458ZM4.99537 6.58166L5.58992 8.75004C5.70866 9.17912 6.09896 9.47758 6.54466 9.47758H11.2535C11.4686 9.47757 11.6778 9.40749 11.8495 9.27792C12.0212 9.14836 12.1461 8.96638 12.2051 8.75954L13.5802 3.93749H4.21321L4.98429 6.5397L4.99537 6.58166Z" fill="#2F1AC4"/>
<path d="M7.70842 13.0417C7.70842 13.4616 7.5416 13.8643 7.24467 14.1612C6.94773 14.4582 6.54501 14.625 6.12508 14.625C5.70516 14.625 5.30243 14.4582 5.0055 14.1612C4.70856 13.8643 4.54175 13.4616 4.54175 13.0417C4.54175 12.6217 4.70856 12.219 5.0055 11.9221C5.30243 11.6251 5.70516 11.4583 6.12508 11.4583C6.54501 11.4583 6.94773 11.6251 7.24467 11.9221C7.5416 12.219 7.70842 12.6217 7.70842 13.0417ZM6.52092 13.0417C6.52092 12.9367 6.47921 12.836 6.40498 12.7618C6.33075 12.6875 6.23006 12.6458 6.12508 12.6458C6.0201 12.6458 5.91942 12.6875 5.84518 12.7618C5.77095 12.836 5.72925 12.9367 5.72925 13.0417C5.72925 13.1466 5.77095 13.2473 5.84518 13.3216C5.91942 13.3958 6.0201 13.4375 6.12508 13.4375C6.23006 13.4375 6.33075 13.3958 6.40498 13.3216C6.47921 13.2473 6.52092 13.1466 6.52092 13.0417Z" fill="#2F1AC4"/>
<path d="M13.2502 13.0417C13.2502 13.4616 13.0833 13.8643 12.7864 14.1612C12.4895 14.4582 12.0868 14.625 11.6668 14.625C11.2469 14.625 10.8442 14.4582 10.5472 14.1612C10.2503 13.8643 10.0835 13.4616 10.0835 13.0417C10.0835 12.6217 10.2503 12.219 10.5472 11.9221C10.8442 11.6251 11.2469 11.4583 11.6668 11.4583C12.0868 11.4583 12.4895 11.6251 12.7864 11.9221C13.0833 12.219 13.2502 12.6217 13.2502 13.0417ZM12.0627 13.0417C12.0627 12.9367 12.021 12.836 11.9467 12.7618C11.8725 12.6875 11.7718 12.6458 11.6668 12.6458C11.5618 12.6458 11.4612 12.6875 11.3869 12.7618C11.3127 12.836 11.271 12.9367 11.271 13.0417C11.271 13.1466 11.3127 13.2473 11.3869 13.3216C11.4612 13.3958 11.5618 13.4375 11.6668 13.4375C11.7718 13.4375 11.8725 13.3958 11.9467 13.3216C12.021 13.2473 12.0627 13.1466 12.0627 13.0417Z" fill="#2F1AC4"/>
</svg>
